<svg width="142" height="69" viewBox="0 0 142 69" fill="none" xmlns="http://www.w3.org/2000/svg">
<path d="M21.9239 25.2713C21.9967 24.3664 21.8787 23.4564 21.5774 22.6003C21.2762 21.7441 20.7986 20.9612 20.1756 20.3022C19.5526 19.6433 18.7982 19.1231 17.9614 18.7756C17.1246 18.428 16.2242 18.2609 15.3188 18.285C14.3654 18.1862 13.402 18.2966 12.4954 18.6084C11.5888 18.9203 10.7608 19.4261 10.0689 20.0909C9.37697 20.7556 8.83768 21.5633 8.48848 22.4578C8.13927 23.3524 7.98851 24.3124 8.04667 25.2713C8.02457 26.2245 8.19924 27.1721 8.55972 28.0545C8.9202 28.9369 9.45872 29.7352 10.1415 30.3992C10.8243 31.0633 11.6366 31.5787 12.5275 31.9134C13.4184 32.248 14.3687 32.3945 15.3188 32.3438C16.2223 32.3676 17.1207 32.201 17.9559 31.8547C18.7911 31.5085 19.5444 30.9903 20.167 30.3337C20.7897 29.6772 21.2678 28.8969 21.5705 28.0434C21.8731 27.1899 21.9935 26.2822 21.9239 25.3791V25.2713ZM0 50.7581V11.7084H7.05697L7.55182 15.0938C8.60877 13.7518 9.98219 12.6945 11.5484 12.017C13.1146 11.3394 14.8243 11.063 16.5236 11.2125C24.4412 11.2125 29.863 16.7972 29.863 25.2713C29.863 33.7453 24.3336 39.3731 16.4161 39.3731C14.8066 39.4098 13.2094 39.0841 11.7422 38.4198C10.2751 37.7555 8.97545 36.7697 7.93909 35.535V50.7581H0Z" fill="#001489"/>
<path d="M35.0052 38.8125H42.8797V11.5791H35.0052V38.8125ZM43.4176 4.44187C43.3389 5.58043 42.8321 6.64664 41.9995 7.42526C41.1669 8.20388 40.0705 8.63689 38.9317 8.63689C37.7929 8.63689 36.6966 8.20388 35.864 7.42526C35.0314 6.64664 34.5245 5.58043 34.4458 4.44187C34.5245 3.30332 35.0314 2.2371 35.864 1.45849C36.6966 0.679869 37.7929 0.246849 38.9317 0.246849C40.0705 0.246849 41.1669 0.679869 41.9995 1.45849C42.8321 2.2371 43.3389 3.30332 43.4176 4.44187V4.44187Z" fill="#001489"/>
<path d="M66.5463 19.4063C64.6835 18.0266 62.4061 17.3267 60.0918 17.4225C57.5315 17.4225 56.2191 18.3497 56.2191 19.5788C56.2191 20.8078 57.5745 21.8859 60.1994 21.9506C65.5136 22.1016 71.9036 23.2013 71.9682 30.6834C71.9682 34.9959 68.7409 39.8044 60.1563 39.8044C55.4933 39.9411 50.9537 38.2909 47.4624 35.19L50.8618 29.5838C53.4861 31.8018 56.8095 33.0164 60.2424 33.0122C62.5445 33.0122 64.3303 32.1281 64.2872 30.705C64.2442 29.2819 63.3621 28.3978 59.683 28.29C54.6485 28.0744 48.366 25.9828 48.366 19.665C48.366 13.3472 54.1751 11.04 60.0272 11.04C63.7869 10.8774 67.4711 12.1312 70.3545 14.5547L66.5463 19.4063Z" fill="#001489"/>
<path d="M96.8181 25.2713C96.8702 24.3428 96.7327 23.4134 96.4141 22.54C96.0954 21.6666 95.6022 20.8676 94.9648 20.1918C94.3274 19.5161 93.559 18.9777 92.7068 18.6098C91.8546 18.2419 90.9365 18.0522 90.0086 18.0522C89.0807 18.0522 88.1625 18.2419 87.3103 18.6098C86.4581 18.9777 85.6898 19.5161 85.0524 20.1918C84.4149 20.8676 83.9218 21.6666 83.6031 22.54C83.2844 23.4134 83.1469 24.3428 83.199 25.2713C83.1469 26.1997 83.2844 27.1291 83.6031 28.0025C83.9218 28.8759 84.4149 29.6749 85.0524 30.3507C85.6898 31.0264 86.4581 31.5648 87.3103 31.9327C88.1625 32.3006 89.0807 32.4903 90.0086 32.4903C90.9365 32.4903 91.8546 32.3006 92.7068 31.9327C93.559 31.5648 94.3274 31.0264 94.9648 30.3507C95.6022 29.6749 96.0954 28.8759 96.4141 28.0025C96.7327 27.1291 96.8702 26.1997 96.8181 25.2713V25.2713ZM75.303 25.2713C75.303 17.0775 81.0906 11.04 90.0624 11.04C99.0342 11.04 104.886 17.0775 104.886 25.2713C104.886 33.465 99.2494 39.3731 90.0624 39.3731C80.8754 39.3731 75.303 33.4434 75.303 25.2713" fill="#001489"/>
<path d="M126.939 19.4063C125.074 18.0313 122.798 17.3319 120.485 17.4225C117.925 17.4225 116.612 18.3497 116.612 19.5788C116.612 20.8078 117.968 21.8859 120.592 21.9506C125.907 22.1016 132.297 23.2013 132.361 30.6834C132.361 34.9959 129.134 39.8044 120.549 39.8044C115.887 39.9389 111.348 38.289 107.855 35.19L111.255 29.5838C113.888 31.7988 117.219 33.006 120.657 32.9906C122.959 32.9906 124.745 32.1066 124.702 30.6834C124.659 29.2603 123.777 28.3763 120.098 28.2684C115.085 28.0528 108.781 25.9613 108.781 19.6434C108.781 13.3256 114.525 10.7813 120.485 10.7813C124.245 10.6186 127.929 11.8725 130.812 14.2959L126.939 19.4063Z" fill="#001489"/>
<path d="M79.1327 65.0109C78.9322 65.5779 78.6089 66.0934 78.1861 66.5203C77.8143 66.9028 77.3571 67.191 76.8521 67.3612C76.3537 67.554 75.8015 67.554 75.303 67.3612C74.9463 67.1712 74.6501 66.8844 74.4485 66.5336C74.2468 66.1827 74.1478 65.7821 74.1627 65.3775C74.2119 64.585 74.5135 63.8291 75.0233 63.2213C75.2746 62.9009 75.5896 62.6365 75.9485 62.445C76.4981 62.1961 77.119 62.155 77.6965 62.3294C78.274 62.5038 78.7689 62.8819 79.0897 63.3938C79.19 63.656 79.2481 63.9326 79.2618 64.2131C79.2503 64.4832 79.207 64.751 79.1327 65.0109Z" fill="#3AB5E9"/>
<path d="M97.1194 57.7012C96.9655 57.8822 96.8551 58.0961 96.7967 58.3266C96.7967 58.5853 96.5815 58.7362 96.3664 58.7578C96.1512 58.7794 96.1727 58.7578 96.1727 58.7578C96.1973 58.8276 96.1973 58.9037 96.1727 58.9734C96.1727 58.9734 96.1727 58.9734 96.3233 58.9734H96.7321C96.6125 59.1063 96.5177 59.2597 96.4524 59.4262C96.4147 59.4996 96.395 59.5809 96.395 59.6634C96.395 59.746 96.4147 59.8273 96.4524 59.9006C96.1512 60.1594 96.4524 61.0219 96.0867 61.2806C95.7209 61.5394 95.6349 61.7334 95.2906 62.0353C95.1422 62.1544 94.9632 62.2292 94.7743 62.2509C94.5161 62.2509 94.4085 62.5528 94.2579 62.7684C93.8496 63.2131 93.387 63.6043 92.8809 63.9328C92.0203 64.6444 91.2458 65.4637 90.3206 66.0891C89.5061 66.5965 88.6217 66.9816 87.6958 67.2319C86.8731 67.5031 85.9983 67.5761 85.1422 67.445C84.2862 67.3139 83.473 66.9823 82.7688 66.4772C82.0997 65.9182 81.5604 65.2195 81.1888 64.4299C80.8172 63.6403 80.6221 62.7789 80.6173 61.9059C80.5783 60.5479 80.6792 59.1895 80.9185 57.8522C81.7552 54.1203 83.4745 50.6446 85.9315 47.7178C86.4751 46.8913 87.2773 46.2693 88.2121 45.9497C88.8411 45.8951 89.4734 46.0056 90.0468 46.2702C90.6202 46.5349 91.115 46.9446 91.4824 47.4591C92.2169 48.3042 92.6352 49.379 92.6658 50.4994C92.6658 51.5344 92.6658 53.2809 91.7621 53.9494C90.8585 54.6178 90.213 53.9494 89.7612 53.3025C89.5495 52.9463 89.39 52.5614 89.2879 52.1597C89.2879 51.9872 89.1803 51.6637 88.9867 51.5775C88.3197 51.3187 87.4161 52.5909 87.0718 53.0222C86.3608 54.0622 85.8096 55.2034 85.4367 56.4075C84.8382 57.896 84.4263 59.4532 84.2103 61.0434C84.1113 61.4132 84.1006 61.801 84.1791 62.1757C84.2576 62.5503 84.4231 62.9011 84.6621 63.1997C85.065 63.4975 85.5352 63.6908 86.0307 63.7623C86.5263 63.8338 87.0318 63.7812 87.5021 63.6094C88.9969 63.1543 90.3764 62.3821 91.547 61.3453C92.0991 60.8764 92.6812 60.4442 93.2897 60.0516C93.9997 59.6419 94.7312 59.34 95.4412 58.8872C96.1512 58.4344 96.7536 58.0678 97.3561 57.7659L97.1194 57.7012Z" fill="#3AB5E9"/>
<path d="M141.419 60.2456C141.613 60.4828 141.419 60.9788 141.419 61.3453C141.613 62.3372 140.408 62.9194 139.676 63.1997C138.816 63.5155 137.903 63.6619 136.987 63.6309C135.863 63.7999 134.714 63.5954 133.717 63.0488C132.981 62.437 132.381 61.6779 131.955 60.8202C131.528 59.9625 131.286 59.025 131.242 58.0678C131.242 57.4856 131.242 57.3994 130.748 56.925C130.677 56.8187 130.568 56.7436 130.444 56.7155C130.32 56.6874 130.19 56.7084 130.081 56.7741C128.955 57.8852 128.03 59.1839 127.348 60.6122C126.464 62.1613 125.313 63.5411 123.949 64.6875C123.56 64.9921 123.094 65.1817 122.604 65.2351C122.114 65.2884 121.618 65.2033 121.173 64.9894C120.559 64.7152 119.992 64.3439 119.495 63.8897C119.117 63.474 118.846 62.9714 118.707 62.4261C118.568 61.8809 118.566 61.3097 118.699 60.7631C118.828 59.5341 119.065 58.2834 119.301 57.0544C119.301 56.5153 120.076 54.51 119.301 54.165C118.527 53.82 117.925 55.4587 117.731 55.8469C117.021 57.0975 116.203 58.2403 115.407 59.4478C114.611 60.6553 114.288 61.6041 113.708 62.5313L112.46 64.5797C112.131 65.2488 111.634 65.8208 111.018 66.24C110.745 66.3448 110.453 66.3927 110.16 66.3805C109.868 66.3683 109.581 66.2965 109.317 66.1693C109.053 66.0421 108.818 65.8623 108.626 65.6409C108.434 65.4195 108.289 65.1611 108.2 64.8816C107.769 63.2858 107.769 61.6042 108.2 60.0084C108.544 58.4128 108.91 56.8172 109.275 55.2431C110.05 51.8578 110.846 47.0062 111.621 43.6425C111.7 43.2775 111.889 42.9456 112.162 42.6913C112.435 42.437 112.779 42.2723 113.148 42.2194C117.322 41.6803 115.02 49.8094 114.525 51.7284C114.33 52.2556 114.207 52.8069 114.159 53.3672C114.163 53.4524 114.187 53.5355 114.228 53.6102C114.269 53.685 114.326 53.7493 114.396 53.7984C114.53 53.852 114.677 53.8576 114.815 53.8144C114.952 53.7711 115.07 53.6817 115.149 53.5612C116.004 52.3089 116.793 51.0134 117.516 49.68C118.032 48.7744 118.57 47.5237 119.517 46.92C121.087 46.0575 123.282 47.61 124.078 48.9253C125.347 51.0816 123.863 55.0922 123.368 57.3131C123.368 57.5934 123.024 58.4559 123.368 58.4775C123.712 58.4991 124.702 57.2916 124.895 57.0328C125.864 55.7606 127.241 53.3887 128.166 52.0734C128.812 50.8377 129.655 49.7161 130.661 48.7528C131.479 48.2137 132.211 48.7528 133.028 49.0547C133.286 49.1625 133.566 49.2272 133.824 49.3566C134.418 49.693 134.898 50.1984 135.204 50.8088C135.511 51.4191 135.63 52.1069 135.545 52.785C135.284 55.0176 135.227 57.2694 135.373 59.5125C135.397 59.7487 135.468 59.9775 135.583 60.1852C135.698 60.3928 135.853 60.5748 136.041 60.7201C136.228 60.8654 136.443 60.9709 136.672 61.0302C136.901 61.0895 137.14 61.1013 137.374 61.065C138.006 61.0531 138.634 60.9663 139.246 60.8063C139.807 60.5589 140.382 60.3429 140.967 60.1594C141.037 60.1216 141.114 60.1019 141.193 60.1019C141.272 60.1019 141.35 60.1216 141.419 60.1594" fill="#3AB5E9"/>
<path d="M104.305 53.5613C104.226 52.9976 104.036 52.4553 103.746 51.9656C103.675 51.8302 103.568 51.7168 103.437 51.6377C103.306 51.5586 103.157 51.5168 103.004 51.5168C102.851 51.5168 102.701 51.5586 102.57 51.6377C102.44 51.7168 102.333 51.8302 102.262 51.9656C101.918 52.6336 101.538 53.2815 101.121 53.9063C100.487 54.9218 99.9401 55.9894 99.4861 57.0975C98.8406 58.6069 98.1736 60.1163 97.5927 61.6472C97.4851 61.9706 97.1409 62.6175 97.3561 62.9625C97.8939 63.8466 98.9051 62.5959 99.4 62.3588C100.346 61.9665 101.134 61.2682 101.638 60.375C102.003 59.7713 102.348 59.1675 102.692 58.5638C102.914 58.2017 103.115 57.8274 103.294 57.4425C103.478 57.0358 103.636 56.6182 103.768 56.1919C103.94 55.6744 104.09 55.1353 104.241 54.5963C104.304 54.2469 104.304 53.889 104.241 53.5397L104.305 53.5613ZM108.178 55.1784C108.156 55.5615 108.113 55.943 108.049 56.3213C107.455 59.0091 106.095 61.4662 104.133 63.3937L102.412 65.0972L101.53 66.0244C101.258 66.3689 100.939 66.6737 100.583 66.93C100.07 67.2586 99.4932 67.4743 98.8907 67.5629C98.2882 67.6514 97.6738 67.6108 97.0881 67.4437C96.5024 67.2766 95.9587 66.9867 95.4931 66.5934C95.0275 66.2 94.6504 65.7121 94.387 65.1619C94.2849 64.9065 94.1473 64.667 93.9782 64.4503C93.6037 64.0247 93.3575 63.5013 93.2682 62.9409C93.1494 62.1426 93.1933 61.3284 93.3973 60.5475C93.9861 57.5084 95.2918 54.6546 97.2054 52.2244C97.4421 51.9656 99.6797 49.2056 98.8621 49.0978C98.6254 49.0978 98.1521 49.2056 98.1091 48.8391C98.1524 48.4837 98.294 48.1477 98.5179 47.8688C98.8809 47.338 99.3785 46.9138 99.9594 46.6397C100.523 46.2977 101.131 46.0364 101.767 45.8634C102.207 45.8193 102.651 45.8848 103.061 46.054C103.47 46.2233 103.831 46.4911 104.112 46.8338C104.413 47.1356 104.671 47.4806 104.951 47.8041C105.231 48.1275 105.618 48.3647 105.919 48.7097C107.486 50.4912 108.317 52.8045 108.243 55.1784" fill="#3AB5E9"/>
</svg>
